# xmcd CD database file
#
# Track frame offsets:
#	150
#	30137
#	38295
#	79827
#	105957
#	127090
#	157625
#	186782
#	211242
#	235022
#	242842
#
# Disc length: 3697 seconds
#
# Revision: 0
# Processed by: cddbd v1.5.1PL0 Copyright (c) Steve Scherf et al.
# Submitted via: CDex 1.51
#
DISCID=710e6f0b
DTITLE=Mike Stern - Standards (and Other Songs)
DYEAR=1992
DGENRE=Jazz
TTITLE0=Like Someone in Love
TTITLE1=Source
TTITLE2=There Is No Greater Love
TTITLE3=L Bird
TTITLE4=Moment's Notice
TTITLE5=Lost Time
TTITLE6=Windows
TTITLE7=Straight No Chaser
TTITLE8=Peace
TTITLE9=Jean Pierre
TTITLE10=Nardis
EXTD=YEAR: 1992
EXTT0=
EXTT1=
EXTT2=
EXTT3=
EXTT4=
EXTT5=
EXTT6=
EXTT7=
EXTT8=
EXTT9=
EXTT10=
PLAYORDER=
